<svg xmlns="http://www.w3.org/2000/svg" viewBox="0 0 56.69 56.69"><defs><style>.cls-1{isolation:isolate;}.cls-2,.cls-3{fill:#fff;}.cls-2{stroke:#fff;stroke-miterlimit:10;stroke-width:2.11px;}.cls-4{mix-blend-mode:multiply;}</style></defs><g class="cls-1"><g id="Capa_1" data-name="Capa 1"><polygon class="cls-2" points="50.03 39.76 52.31 28.35 50.03 16.93 45.28 12.18 44.46 11.08 44.41 10.23 43.82 5.52 22.69 5.52 13.55 10.06 6.66 16.93 4.38 28.35 6.66 39.76 13.49 46.59 22.6 51.15 28.22 51.16 43.82 51.18 44.41 46.45 44.46 45.6 45.31 44.47 50.03 39.76"/><path class="cls-3" d="M13.65,46.44,6.86,39.65,4.6,28.35,6.86,17l6.79-6.78,9-4.53H34l9,4.53L49.83,17l2.26,11.31-2.26,11.3L43,46.44,34,51H22.69Z"/><path d="M34.05,51.18l-11.45,0-9.11-4.56L6.66,39.76,4.38,28.35,6.66,16.93l6.89-6.87,9.14-4.54,11.41,0,9.1,4.56L50,16.93l2.28,11.42L50,39.76l-6.89,6.87Zm-11.31-.44H34l9-4.48,6.71-6.72,2.24-11.19-2.24-11.2-6.71-6.71L34,6H22.74l-9,4.49L7.06,17.15,4.83,28.35,7.06,39.54l6.72,6.72Z"/><g class="cls-4"><path class="cls-3" d="M42.35,46.44l-.42-6.79-.14-11.3L41.93,17l.42-6.78.57-4.53h.7l.57,4.53L44.61,17l.14,11.31-.14,11.3-.42,6.79L43.62,51h-.7Z"/><path d="M43.82,51.18H42.73l-.6-4.73-.42-6.78-.14-11.32L41.71,17l.42-6.8.6-4.72h1.09l.59,4.71.42,6.8L45,28.34l-.14,11.31-.42,6.8Zm-.71-.44h.32L44,46.41l.43-6.77.14-11.3L44.4,17,44,10.27,43.43,6h-.32l-.54,4.33-.42,6.77L42,28.35l.15,11.3.42,6.77Z"/></g><g class="cls-4"><path class="cls-3" d="M40,46.44l-.85-6.79-.28-11.3L39.1,17,40,10.26l1.13-4.53h1.41l1.13,4.53L44.47,17l.28,11.31-.28,11.3-.85,6.79L42.49,51H41.08Z"/><path d="M42.66,51.18H40.91l-1.18-4.72-.84-6.78L38.6,28.35,38.88,17l.85-6.81,1.18-4.71h1.75l1.18,4.68L44.69,17,45,28.34l-.28,11.32-.85,6.8Zm-1.41-.44h1.07l1.09-4.36.85-6.75.28-11.29-.29-11.29-.84-6.77L42.32,6H41.25l-1.09,4.36-.84,6.76L39,28.35l.28,11.3.84,6.75Z"/></g><g class="cls-4"><path class="cls-3" d="M36.25,46.44l-1.69-6.79L34,28.35,34.56,17l1.69-6.78,2.27-4.53h2.82l2.26,4.53L45.3,17l.57,11.31-.57,11.3-1.7,6.79L41.34,51H38.52Z"/><path d="M41.48,51.18h-3.1L36,46.49,34.35,39.7l-.57-11.34L34.34,17,36,10.2l2.34-4.68h3.1l2.32,4.64L45.51,17l.57,11.35-.56,11.32-1.7,6.83Zm-2.83-.44h2.56l2.2-4.4,1.68-6.74.56-11.26-.57-11.29-1.69-6.74L41.21,6H38.65l-2.2,4.4-1.68,6.74-.56,11.27.57,11.28,1.68,6.72Z"/></g><g class="cls-4"><path class="cls-3" d="M21.52,46.44l-5.08-6.79-1.7-11.3L16.44,17l5.08-6.78,6.79-4.53h8.48l6.78,4.53L48.66,17l1.69,11.31-1.69,11.3-5.09,6.79L36.79,51H28.31Z"/><path d="M36.85,51.18H28.24l-6.89-4.61-5.13-6.89-1.7-11.33v0l1.73-11.4,5.14-6.83,6.84-4.56h8.61l6.9,4.61L48.87,17l1.71,11.34v0l-1.74,11.4-5.14,6.84Zm-8.48-.44h8.35l6.7-4.46,5-6.71,1.69-11.22L48.45,17.13l-5-6.71L36.72,6H28.37l-6.69,4.47-5,6.71L15,28.35l1.68,11.22,5,6.71Z"/></g><g class="cls-4"><path class="cls-3" d="M28.74,46.44l-3.39-6.79-1.13-11.3L25.35,17l3.39-6.78,4.52-4.53h5.66l4.52,4.53L46.83,17,48,28.35l-1.13,11.3-3.39,6.79L38.92,51H33.26Z"/><path d="M39,51.18H33.17l-4.62-4.65-3.42-6.86L24,28.37l1.15-11.43,3.44-6.84,4.58-4.58H39l4.62,4.64L47.05,17l1.13,11.3L47,39.75l-3.44,6.84Zm-5.66-.44h5.48l4.43-4.43,3.36-6.72,1.12-11.27L46.62,17.1l-3.36-6.71L38.83,6H33.35l-4.43,4.44L25.56,17.1,24.43,28.37l1.13,11.22,3.36,6.72Z"/></g></g></g></svg>